<?xml version="1.0" encoding="UTF-8"?>
<!DOCTYPE svg PUBLIC "-//W3C//DTD SVG 1.1//EN" "http://www.w3.org/Graphics/SVG/1.1/DTD/svg11.dtd">
<svg xmlns="http://www.w3.org/2000/svg" version="1.1" width="3464px" height="3464px" style="shape-rendering:geometricPrecision; text-rendering:geometricPrecision; image-rendering:optimizeQuality; fill-rule:evenodd; clip-rule:evenodd" xmlns:xlink="http://www.w3.org/1999/xlink">
<g><path style="opacity:0.999" fill="#fefefe" d="M 1697.5,608.5 C 1965.16,603.671 2205.16,681.505 2417.5,842C 2642.26,1019.4 2782.09,1249.57 2837,1532.5C 2883.58,1810.27 2835.58,2070.27 2693,2312.5C 2538.39,2561.04 2320.56,2727.54 2039.5,2812C 1815.55,2873.48 1593.21,2868.14 1372.5,2796C 1123.21,2708.66 926.706,2554.5 783,2333.5C 630.412,2086.55 578.078,1819.55 626,1532.5C 683.266,1238.52 831.099,1002.35 1069.5,824C 1256.78,689.401 1466.12,617.568 1697.5,608.5 Z"/></g>
<g><path style="opacity:1" fill="#000000" d="M 2465.5,1394.5 C 2464.5,1411.66 2464.17,1428.99 2464.5,1446.5C 2441.17,1446.5 2417.83,1446.5 2394.5,1446.5C 1932.5,1442.33 1470.5,1438.33 1008.5,1434.5C 1009.24,1370.17 1009.57,1305.84 1009.5,1241.5C 1495.16,1246.36 1980.83,1250.7 2466.5,1254.5C 2465.73,1301.16 2465.4,1347.83 2465.5,1394.5 Z"/></g>
<g><path style="opacity:1" fill="#818181" d="M 2465.5,1394.5 C 2465.5,1412.17 2465.5,1429.83 2465.5,1447.5C 2441.66,1447.83 2417.99,1447.5 2394.5,1446.5C 2417.83,1446.5 2441.17,1446.5 2464.5,1446.5C 2464.17,1428.99 2464.5,1411.66 2465.5,1394.5 Z"/></g>
<g><path style="opacity:1" fill="#000000" d="M 1047.5,1819.5 C 1033.68,1818.5 1019.68,1818.17 1005.5,1818.5C 1005.5,1803.17 1005.5,1787.83 1005.5,1772.5C 1006.09,1723.84 1006.42,1675.17 1006.5,1626.5C 1491.83,1630.8 1977.16,1634.8 2462.5,1638.5C 2462.12,1702.83 2461.79,1767.17 2461.5,1831.5C 1990.17,1827.21 1518.84,1823.21 1047.5,1819.5 Z"/></g>
<g><path style="opacity:1" fill="#8c8c8c" d="M 1005.5,1772.5 C 1005.5,1787.83 1005.5,1803.17 1005.5,1818.5C 1019.68,1818.17 1033.68,1818.5 1047.5,1819.5C 1033.17,1819.5 1018.83,1819.5 1004.5,1819.5C 1004.17,1803.66 1004.5,1787.99 1005.5,1772.5 Z"/></g>
<g><path style="opacity:1" fill="#000000" d="M 2458.5,2178.5 C 2457.5,2190.66 2457.17,2202.99 2457.5,2215.5C 2434.17,2215.5 2410.83,2215.5 2387.5,2215.5C 1925.5,2211.2 1463.5,2207.2 1001.5,2203.5C 1002.33,2139.17 1002.66,2074.84 1002.5,2010.5C 1488.16,2015.36 1973.82,2019.7 2459.5,2023.5C 2458.76,2075.16 2458.43,2126.83 2458.5,2178.5 Z"/></g>
<g><path style="opacity:1" fill="#838383" d="M 2458.5,2178.5 C 2458.5,2191.17 2458.5,2203.83 2458.5,2216.5C 2434.66,2216.83 2410.99,2216.5 2387.5,2215.5C 2410.83,2215.5 2434.17,2215.5 2457.5,2215.5C 2457.17,2202.99 2457.5,2190.66 2458.5,2178.5 Z"/></g>
</svg>
