<?xml version="1.0" encoding="UTF-8"?>
<!DOCTYPE svg PUBLIC "-//W3C//DTD SVG 1.1//EN" "http://www.w3.org/Graphics/SVG/1.1/DTD/svg11.dtd">
<svg xmlns="http://www.w3.org/2000/svg" version="1.1" width="3464px" height="3464px" style="shape-rendering:geometricPrecision; text-rendering:geometricPrecision; image-rendering:optimizeQuality; fill-rule:evenodd; clip-rule:evenodd" xmlns:xlink="http://www.w3.org/1999/xlink">
<g><path style="opacity:0.999" fill="#fefefe" d="M 1697.5,608.5 C 1965.16,603.671 2205.16,681.505 2417.5,842C 2642.26,1019.4 2782.09,1249.57 2837,1532.5C 2883.58,1810.27 2835.58,2070.27 2693,2312.5C 2538.39,2561.04 2320.56,2727.54 2039.5,2812C 1815.55,2873.48 1593.21,2868.14 1372.5,2796C 1123.21,2708.66 926.706,2554.5 783,2333.5C 630.412,2086.55 578.078,1819.55 626,1532.5C 683.266,1238.52 831.099,1002.35 1069.5,824C 1256.78,689.401 1466.12,617.568 1697.5,608.5 Z"/></g>
<g><path style="opacity:1" fill="#000000" d="M 1289.5,1144.5 C 1438.75,1292.25 1587.58,1440.58 1736,1589.5C 1881.83,1442.33 2027.67,1295.17 2173.5,1148C 2174.5,1147.33 2175.5,1147.33 2176.5,1148C 2221.19,1193.03 2266.19,1237.69 2311.5,1282C 2165.53,1430.31 2019.19,1578.31 1872.5,1726C 2021.14,1875.64 2170.14,2024.97 2319.5,2174C 2274.5,2219 2229.5,2264 2184.5,2309C 2183.83,2309.67 2183.17,2309.67 2182.5,2309C 2033.99,2160.32 1885.32,2011.82 1736.5,1863.5C 1587.37,2014.46 1438.04,2165.29 1288.5,2316C 1287.09,2316.32 1285.76,2315.98 1284.5,2315C 1240.14,2270.31 1195.47,2225.97 1150.5,2182C 1300.14,2030.03 1450.14,1878.36 1600.5,1727C 1452,1578.5 1303.5,1430 1155,1281.5C 1154.33,1280.83 1154.33,1280.17 1155,1279.5C 1200.03,1234.63 1244.87,1189.63 1289.5,1144.5 Z"/></g>
</svg>
