<?xml version="1.0" encoding="UTF-8"?>
<!DOCTYPE svg PUBLIC "-//W3C//DTD SVG 1.1//EN" "http://www.w3.org/Graphics/SVG/1.1/DTD/svg11.dtd">
<svg xmlns="http://www.w3.org/2000/svg" version="1.1" width="3464px" height="3464px" style="shape-rendering:geometricPrecision; text-rendering:geometricPrecision; image-rendering:optimizeQuality; fill-rule:evenodd; clip-rule:evenodd" xmlns:xlink="http://www.w3.org/1999/xlink">
<g><path style="opacity:0.994" fill="#000000" d="M 419.5,18.5 C 1294.17,18.3333 2168.83,18.5 3043.5,19C 3189.4,30.7425 3301.9,97.5758 3381,219.5C 3419.73,283.03 3440.73,352.03 3444,426.5C 3444.67,1296.83 3444.67,2167.17 3444,3037.5C 3435.35,3171.33 3378.51,3279.16 3273.5,3361C 3205.15,3411.01 3128.48,3438.68 3043.5,3444C 2168.83,3444.67 1294.17,3444.67 419.5,3444C 287.347,3434.02 181.181,3376.86 101,3272.5C 47.4121,3198.4 19.7454,3115.4 18,3023.5C 17.3333,2162.17 17.3333,1300.83 18,439.5C 23.6959,286.888 89.5293,168.388 215.5,84C 278.159,45.3908 346.159,23.5575 419.5,18.5 Z M 426.5,185.5 C 1296.17,185.333 2165.83,185.5 3035.5,186C 3125.77,194.357 3194.6,236.857 3242,313.5C 3263.45,350.964 3275.12,391.297 3277,434.5C 3277.67,1299.5 3277.67,2164.5 3277,3029.5C 3271.01,3116.67 3232.51,3185.17 3161.5,3235C 3123.44,3259.58 3081.77,3273.58 3036.5,3277C 2166.17,3277.67 1295.83,3277.67 425.5,3277C 337.161,3268.44 269.327,3226.94 222,3152.5C 201.579,3117.9 189.579,3080.57 186,3040.5C 185.333,2167.83 185.333,1295.17 186,422.5C 195.684,335.567 237.184,268.734 310.5,222C 346.579,201.25 385.246,189.083 426.5,185.5 Z M 1054.5,764.5 C 1111.5,764.333 1168.5,764.5 1225.5,765C 1227.52,765.45 1229.35,766.283 1231,767.5C 1233.87,773.606 1233.87,779.606 1231,785.5C 1229.77,787.726 1227.94,789.226 1225.5,790C 1168.5,790.5 1111.5,790.667 1054.5,790.5C 1054.5,781.833 1054.5,773.167 1054.5,764.5 Z M 1790.5,1044.5 C 1811.6,1071.43 1835.6,1095.6 1862.5,1117C 1831.5,1117.33 1800.5,1117.67 1769.5,1118C 1724.89,1125.14 1694.89,1149.98 1679.5,1192.5C 1674.75,1184.66 1670.25,1176.66 1666,1168.5C 1665.25,1167.36 1665.42,1166.36 1666.5,1165.5C 1715.06,1132.61 1756.4,1092.27 1790.5,1044.5 Z M 1054.5,1340.5 C 1114.26,1462.53 1173.93,1584.7 1233.5,1707C 1171.5,1707.67 1109.5,1707.67 1047.5,1707C 1051.61,1696.59 1053.77,1685.76 1054,1674.5C 1054.5,1563.17 1054.67,1451.83 1054.5,1340.5 Z M 1915.5,1694.5 C 1923.11,1698.64 1930.78,1702.81 1938.5,1707C 1929.48,1707.83 1920.48,1707.67 1911.5,1706.5C 1913.15,1702.58 1914.48,1698.58 1915.5,1694.5 Z M 2165.5,1781.5 C 2273.21,1798.3 2381.55,1804.97 2490.5,1801.5C 2437.15,1977.89 2383.65,2154.22 2330,2330.5C 2274.86,2147.57 2220.02,1964.57 2165.5,1781.5 Z M 1031.5,2235.5 C 1057.5,2235.33 1083.5,2235.5 1109.5,2236C 1113.19,2236.42 1116.86,2236.92 1120.5,2237.5C 1122.48,2251.09 1122.98,2264.75 1122,2278.5C 1121.8,2281.7 1120.97,2284.7 1119.5,2287.5C 1114.96,2288.95 1110.29,2289.78 1105.5,2290C 1080.84,2290.5 1056.17,2290.67 1031.5,2290.5C 1031.5,2272.17 1031.5,2253.83 1031.5,2235.5 Z"/></g>
<g><path style="opacity:0.996" fill="#000000" d="M 2355.5,224.5 C 2447.77,221.661 2539.1,229.494 2629.5,248C 2710.8,264.535 2786.8,294.202 2857.5,337C 3017.51,440.85 3092.35,588.684 3082,780.5C 3068.99,833.842 3035.16,863.342 2980.5,869C 2962.83,869.333 2945.17,869.667 2927.5,870C 3054.92,959.145 3119.25,1082.15 3120.5,1239C 3120.49,1308.38 3109.33,1375.88 3087,1441.5C 3043.22,1557.61 2967.39,1646.11 2859.5,1707C 2920.17,1707.33 2980.83,1707.67 3041.5,1708C 3093.5,1715.75 3125.33,1745.25 3137,1796.5C 3140.51,1819.24 3137.85,1841.24 3129,1862.5C 2974.8,2298.76 2820.8,2735.09 2667,3171.5C 2648.69,3210.92 2617.86,3233.09 2574.5,3238C 2406.5,3238.67 2238.5,3238.67 2070.5,3238C 2026.02,3233.16 1994.85,3210.33 1977,3169.5C 1895.58,2938.91 1813.58,2708.57 1731,2478.5C 1675.47,2623.81 1575.31,2724.65 1430.5,2781C 1378.45,2799.76 1324.78,2810.43 1269.5,2813C 1190.17,2813.5 1110.83,2813.67 1031.5,2813.5C 1031.98,2924.19 1031.48,3034.85 1030,3145.5C 1024.68,3179.35 1007.51,3205.18 978.5,3223C 962.812,3232.45 945.812,3237.45 927.5,3238C 780.15,3238.98 632.817,3238.65 485.5,3237C 439.128,3227.96 409.295,3200.79 396,3155.5C 394.244,3146.92 393.244,3138.26 393,3129.5C 392.833,3111.67 392.667,3093.83 392.5,3076C 392.792,2660.61 392.792,2245.95 392.5,1832C 389.583,1791.04 403.25,1757.04 433.5,1730C 422.175,1712.21 416.342,1692.71 416,1671.5C 415.333,1232.5 415.333,793.5 416,354.5C 419.498,303.348 445.331,269.181 493.5,252C 502.033,249.8 510.699,248.467 519.5,248C 792.167,247.333 1064.83,247.333 1337.5,248C 1462.39,247.083 1576.05,281.749 1678.5,352C 1692.2,362.186 1705.53,372.853 1718.5,384C 1744.34,407.583 1767.51,433.417 1788,461.5C 1832.04,403.448 1885.87,356.948 1949.5,322C 2020.49,283.668 2095.83,257.668 2175.5,244C 2235.16,232.958 2295.16,226.458 2355.5,224.5 Z M 1054.5,764.5 C 1054.5,773.167 1054.5,781.833 1054.5,790.5C 1111.5,790.667 1168.5,790.5 1225.5,790C 1227.94,789.226 1229.77,787.726 1231,785.5C 1233.87,779.606 1233.87,773.606 1231,767.5C 1229.35,766.283 1227.52,765.45 1225.5,765C 1168.5,764.5 1111.5,764.333 1054.5,764.5 Z M 1790.5,1044.5 C 1756.4,1092.27 1715.06,1132.61 1666.5,1165.5C 1665.42,1166.36 1665.25,1167.36 1666,1168.5C 1670.25,1176.66 1674.75,1184.66 1679.5,1192.5C 1694.89,1149.98 1724.89,1125.14 1769.5,1118C 1800.5,1117.67 1831.5,1117.33 1862.5,1117C 1835.6,1095.6 1811.6,1071.43 1790.5,1044.5 Z M 1054.5,1340.5 C 1054.67,1451.83 1054.5,1563.17 1054,1674.5C 1053.77,1685.76 1051.61,1696.59 1047.5,1707C 1109.5,1707.67 1171.5,1707.67 1233.5,1707C 1173.93,1584.7 1114.26,1462.53 1054.5,1340.5 Z M 1915.5,1694.5 C 1914.48,1698.58 1913.15,1702.58 1911.5,1706.5C 1920.48,1707.67 1929.48,1707.83 1938.5,1707C 1930.78,1702.81 1923.11,1698.64 1915.5,1694.5 Z M 2165.5,1781.5 C 2220.02,1964.57 2274.86,2147.57 2330,2330.5C 2383.65,2154.22 2437.15,1977.89 2490.5,1801.5C 2381.55,1804.97 2273.21,1798.3 2165.5,1781.5 Z M 1031.5,2235.5 C 1031.5,2253.83 1031.5,2272.17 1031.5,2290.5C 1056.17,2290.67 1080.84,2290.5 1105.5,2290C 1110.29,2289.78 1114.96,2288.95 1119.5,2287.5C 1120.97,2284.7 1121.8,2281.7 1122,2278.5C 1122.98,2264.75 1122.48,2251.09 1120.5,2237.5C 1116.86,2236.92 1113.19,2236.42 1109.5,2236C 1083.5,2235.5 1057.5,2235.33 1031.5,2235.5 Z"/></g>
<g><path style="opacity:1" fill="#eaeaea" d="M 2453.5,334.5 C 2449.49,334.334 2445.49,334.501 2441.5,335C 2456.93,433.877 2472.6,532.711 2488.5,631.5C 2461.76,622.573 2434.26,618.906 2406,620.5C 2388.8,620.482 2371.64,621.148 2354.5,622.5C 2353.5,622.586 2352.67,622.252 2352,621.5C 2337.44,526.578 2322.61,431.745 2307.5,337C 2309.06,336.79 2310.39,336.29 2311.5,335.5C 2358.97,332.052 2406.3,331.719 2453.5,334.5 Z"/></g>
<g><path style="opacity:1" fill="#f0f0f0" d="M 2453.5,334.5 C 2496.32,336.588 2538.66,341.588 2580.5,349.5C 2579.41,349.62 2578.75,350.287 2578.5,351.5C 2599.97,487.772 2620.97,624.105 2641.5,760.5C 2621.17,760.5 2600.83,760.5 2580.5,760.5C 2580.81,756.629 2580.48,752.962 2579.5,749.5C 2578.17,703.389 2557.84,668.556 2518.5,645C 2508.83,639.663 2498.83,635.163 2488.5,631.5C 2472.6,532.711 2456.93,433.877 2441.5,335C 2445.49,334.501 2449.49,334.334 2453.5,334.5 Z"/></g>
<g><path style="opacity:1" fill="#e3e3e3" d="M 2311.5,335.5 C 2310.39,336.29 2309.06,336.79 2307.5,337C 2322.61,431.745 2337.44,526.578 2352,621.5C 2352.67,622.252 2353.5,622.586 2354.5,622.5C 2323.08,625.587 2294.08,635.753 2267.5,653C 2231.89,679.384 2226.06,711.217 2250,748.5C 2257.33,757.17 2265.83,764.337 2275.5,770C 2309,788.332 2344.33,801.832 2381.5,810.5C 2401.43,942.355 2422.1,1074.02 2443.5,1205.5C 2389.4,1192.68 2335.07,1181.01 2280.5,1170.5C 2238.82,900.083 2196.82,629.749 2154.5,359.5C 2206.02,347.043 2258.36,339.043 2311.5,335.5 Z"/></g>
<g><path style="opacity:1" fill="#f6f6f6" d="M 2580.5,349.5 C 2628.08,357.254 2674.08,370.254 2718.5,388.5C 2737.83,512.5 2757.17,636.5 2776.5,760.5C 2731.5,760.5 2686.5,760.5 2641.5,760.5C 2620.97,624.105 2599.97,487.772 2578.5,351.5C 2578.75,350.287 2579.41,349.62 2580.5,349.5 Z"/></g>
<g><path style="opacity:1" fill="#989898" d="M 1334.5,356.5 C 1331.83,356.5 1329.17,356.5 1326.5,356.5C 1281.83,356.5 1237.17,356.5 1192.5,356.5C 1140.17,356.5 1087.83,356.5 1035.5,356.5C 990.833,356.5 946.167,356.5 901.5,356.5C 856.833,356.5 812.167,356.5 767.5,356.5C 722.833,356.5 678.167,356.5 633.5,356.5C 701.058,794.184 768.725,1231.85 836.5,1669.5C 784.167,1669.5 731.833,1669.5 679.5,1669.5C 628.469,1335.61 576.802,1001.94 524.5,668.5C 524.5,564.167 524.5,459.833 524.5,355.5C 794.667,355.167 1064.67,355.5 1334.5,356.5 Z"/></g>
<g><path style="opacity:1" fill="#9f9f9f" d="M 767.5,356.5 C 826.423,738.696 885.756,1120.7 945.5,1502.5C 945.5,1558.17 945.5,1613.83 945.5,1669.5C 909.167,1669.5 872.833,1669.5 836.5,1669.5C 768.725,1231.85 701.058,794.184 633.5,356.5C 678.167,356.5 722.833,356.5 767.5,356.5 Z"/></g>
<g><path style="opacity:1" fill="#a5a5a5" d="M 767.5,356.5 C 812.167,356.5 856.833,356.5 901.5,356.5C 916.984,456.555 932.65,556.555 948.5,656.5C 947.833,656.5 947.167,656.5 946.5,656.5C 945.501,737.332 945.167,818.332 945.5,899.5C 958.833,899.5 972.167,899.5 985.5,899.5C 1000.96,996.392 1015.96,1093.39 1030.5,1190.5C 1002.17,1190.5 973.833,1190.5 945.5,1190.5C 945.5,1294.5 945.5,1398.5 945.5,1502.5C 885.756,1120.7 826.423,738.696 767.5,356.5 Z"/></g>
<g><path style="opacity:1" fill="#ababab" d="M 901.5,356.5 C 946.167,356.5 990.833,356.5 1035.5,356.5C 1051.35,456.445 1067.02,556.445 1082.5,656.5C 1037.83,656.5 993.167,656.5 948.5,656.5C 932.65,556.555 916.984,456.555 901.5,356.5 Z"/></g>
<g><path style="opacity:1" fill="#b1b1b1" d="M 1035.5,356.5 C 1087.83,356.5 1140.17,356.5 1192.5,356.5C 1207.89,456.911 1223.56,557.244 1239.5,657.5C 1187.19,656.518 1134.86,656.184 1082.5,656.5C 1067.02,556.445 1051.35,456.445 1035.5,356.5 Z"/></g>
<g><path style="opacity:1" fill="#b8b8b8" d="M 1192.5,356.5 C 1237.17,356.5 1281.83,356.5 1326.5,356.5C 1394.4,794.209 1462.4,1231.88 1530.5,1669.5C 1485.5,1669.5 1440.5,1669.5 1395.5,1669.5C 1355.71,1409.08 1315.37,1148.74 1274.5,888.5C 1274.86,887.817 1275.2,887.15 1275.5,886.5C 1314.01,865.762 1335.84,833.428 1341,789.5C 1344.74,732.442 1321.24,691.275 1270.5,666C 1260.25,662.357 1249.91,659.523 1239.5,657.5C 1223.56,557.244 1207.89,456.911 1192.5,356.5 Z"/></g>
<g><path style="opacity:1" fill="#bebebe" d="M 1326.5,356.5 C 1329.17,356.5 1331.83,356.5 1334.5,356.5C 1378.28,356.031 1421.28,361.031 1463.5,371.5C 1500.41,612.27 1537.74,852.937 1575.5,1093.5C 1558.67,1103.24 1541.01,1111.41 1522.5,1118C 1520.78,1118.52 1519.44,1119.52 1518.5,1121C 1547.71,1176.59 1577.04,1232.09 1606.5,1287.5C 1605.86,1288.1 1605.53,1288.93 1605.5,1290C 1625.03,1416.54 1644.7,1543.04 1664.5,1669.5C 1619.83,1669.5 1575.17,1669.5 1530.5,1669.5C 1462.4,1231.88 1394.4,794.209 1326.5,356.5 Z"/></g>
<g><path style="opacity:1" fill="#dddddd" d="M 2154.5,359.5 C 2196.82,629.749 2238.82,900.083 2280.5,1170.5C 2233.07,1160.98 2186.4,1148.98 2140.5,1134.5C 2103.05,891.122 2065.38,647.789 2027.5,404.5C 2067.82,384.169 2110.15,369.169 2154.5,359.5 Z"/></g>
<g><path style="opacity:1" fill="#c4c4c4" d="M 1463.5,371.5 C 1516.08,384.119 1564.41,405.786 1608.5,436.5C 1636.03,620.337 1664.19,804.337 1693,988.5C 1693.23,989.737 1693.73,990.737 1694.5,991.5C 1671.96,1021.87 1645.29,1048.04 1614.5,1070C 1602.11,1078.86 1589.11,1086.69 1575.5,1093.5C 1537.74,852.937 1500.41,612.27 1463.5,371.5 Z"/></g>
<g><path style="opacity:1" fill="#fcfcfc" d="M 2718.5,388.5 C 2798.52,418.403 2863.68,467.736 2914,536.5C 2949.46,587.534 2969.46,644.201 2974,706.5C 2975.19,724.48 2975.69,742.48 2975.5,760.5C 2909.17,760.5 2842.83,760.5 2776.5,760.5C 2757.17,636.5 2737.83,512.5 2718.5,388.5 Z"/></g>
<g><path style="opacity:1" fill="#d7d7d7" d="M 2027.5,404.5 C 2065.38,647.789 2103.05,891.122 2140.5,1134.5C 2090.85,1120.4 2043.18,1101.4 1997.5,1077.5C 1967.35,881.469 1937.02,685.469 1906.5,489.5C 1941.4,453.541 1981.73,425.208 2027.5,404.5 Z"/></g>
<g><path style="opacity:1" fill="#c9c9c9" d="M 1608.5,436.5 C 1688.36,491.775 1739.19,567.109 1761,662.5C 1781.56,755.827 1771.89,845.827 1732,932.5C 1721.47,953.585 1708.97,973.252 1694.5,991.5C 1693.73,990.737 1693.23,989.737 1693,988.5C 1664.19,804.337 1636.03,620.337 1608.5,436.5 Z"/></g>
<g><path style="opacity:1" fill="#d1d1d1" d="M 1906.5,489.5 C 1937.02,685.469 1967.35,881.469 1997.5,1077.5C 1860.99,1001.86 1796.82,885.531 1805,728.5C 1808.27,635.358 1842.1,555.691 1906.5,489.5 Z"/></g>
<g><path style="opacity:0.998" fill="#000000" d="M 946.5,656.5 C 947.167,656.5 947.833,656.5 948.5,656.5C 993.167,656.5 1037.83,656.5 1082.5,656.5C 1134.86,656.184 1187.19,656.518 1239.5,657.5C 1249.91,659.523 1260.25,662.357 1270.5,666C 1321.24,691.275 1344.74,732.442 1341,789.5C 1335.84,833.428 1314.01,865.762 1275.5,886.5C 1259.68,893.954 1243.02,897.954 1225.5,898.5C 1132.5,898.5 1039.5,898.5 946.5,898.5C 946.5,817.833 946.5,737.167 946.5,656.5 Z M 1054.5,764.5 C 1054.5,773.167 1054.5,781.833 1054.5,790.5C 1111.5,790.667 1168.5,790.5 1225.5,790C 1227.94,789.226 1229.77,787.726 1231,785.5C 1233.87,779.606 1233.87,773.606 1231,767.5C 1229.35,766.283 1227.52,765.45 1225.5,765C 1168.5,764.5 1111.5,764.333 1054.5,764.5 Z"/></g>
<g><path style="opacity:1" fill="#929292" d="M 524.5,668.5 C 576.802,1001.94 628.469,1335.61 679.5,1669.5C 731.833,1669.5 784.167,1669.5 836.5,1669.5C 872.833,1669.5 909.167,1669.5 945.5,1669.5C 945.5,1669.83 945.5,1670.17 945.5,1670.5C 805.167,1670.5 664.833,1670.5 524.5,1670.5C 524.5,1336.5 524.5,1002.5 524.5,668.5 Z"/></g>
<g><path style="opacity:1" fill="#404040" d="M 2579.5,749.5 C 2580.48,752.962 2580.81,756.629 2580.5,760.5C 2600.83,760.5 2621.17,760.5 2641.5,760.5C 2686.5,760.5 2731.5,760.5 2776.5,760.5C 2842.83,760.5 2909.17,760.5 2975.5,760.5C 2843.67,761.5 2711.67,761.833 2579.5,761.5C 2579.5,757.5 2579.5,753.5 2579.5,749.5 Z"/></g>
<g><path style="opacity:1" fill="#eaeaea" d="M 2381.5,810.5 C 2427.66,821.066 2474,830.732 2520.5,839.5C 2562.76,1116.75 2605.76,1393.75 2649.5,1670.5C 2608.13,1680.09 2566.13,1686.42 2523.5,1689.5C 2521.5,1689.5 2519.5,1689.5 2517.5,1689.5C 2502.16,1589.25 2486.49,1489.08 2470.5,1389C 2471.42,1388.72 2472.08,1388.22 2472.5,1387.5C 2497.11,1385.03 2520.45,1378.19 2542.5,1367C 2575.25,1346.79 2586.41,1317.95 2576,1280.5C 2569.76,1266.59 2560.26,1255.42 2547.5,1247C 2514.86,1228.17 2480.2,1214.34 2443.5,1205.5C 2422.1,1074.02 2401.43,942.355 2381.5,810.5 Z"/></g>
<g><path style="opacity:1" fill="#f0f0f0" d="M 2520.5,839.5 C 2567.49,848.167 2613.83,859.167 2659.5,872.5C 2698.33,1123.49 2737.16,1374.49 2776,1625.5C 2776.67,1626.25 2777.5,1626.59 2778.5,1626.5C 2737.5,1646.72 2694.5,1661.39 2649.5,1670.5C 2605.76,1393.75 2562.76,1116.75 2520.5,839.5 Z"/></g>
<g><path style="opacity:1" fill="#f6f6f6" d="M 2659.5,872.5 C 2709.15,885.158 2757.15,902.158 2803.5,923.5C 2802.5,923.47 2801.84,923.97 2801.5,925C 2833.27,1127.78 2864.77,1330.62 2896,1533.5C 2896.1,1536.52 2896.93,1539.19 2898.5,1541.5C 2863.78,1577.2 2823.78,1605.54 2778.5,1626.5C 2777.5,1626.59 2776.67,1626.25 2776,1625.5C 2737.16,1374.49 2698.33,1123.49 2659.5,872.5 Z"/></g>
<g><path style="opacity:1" fill="#b2b2b2" d="M 1275.5,886.5 C 1275.2,887.15 1274.86,887.817 1274.5,888.5C 1315.37,1148.74 1355.71,1409.08 1395.5,1669.5C 1375.5,1669.5 1355.5,1669.5 1335.5,1669.5C 1287.9,1571.96 1240.56,1474.29 1193.5,1376.5C 1169.07,1217.51 1144.74,1058.51 1120.5,899.5C 1155.67,899.832 1190.67,899.498 1225.5,898.5C 1243.02,897.954 1259.68,893.954 1275.5,886.5 Z"/></g>
<g><path style="opacity:1" fill="#505050" d="M 946.5,656.5 C 946.5,737.167 946.5,817.833 946.5,898.5C 1039.5,898.5 1132.5,898.5 1225.5,898.5C 1190.67,899.498 1155.67,899.832 1120.5,899.5C 1075.5,899.5 1030.5,899.5 985.5,899.5C 972.167,899.5 958.833,899.5 945.5,899.5C 945.167,818.332 945.501,737.332 946.5,656.5 Z"/></g>
<g><path style="opacity:1" fill="#ababab" d="M 985.5,899.5 C 1030.5,899.5 1075.5,899.5 1120.5,899.5C 1144.74,1058.51 1169.07,1217.51 1193.5,1376.5C 1162.89,1314.96 1132.56,1253.29 1102.5,1191.5C 1078.67,1190.5 1054.67,1190.17 1030.5,1190.5C 1015.96,1093.39 1000.96,996.392 985.5,899.5 Z"/></g>
<g><path style="opacity:1" fill="#fcfcfc" d="M 2803.5,923.5 C 2959.2,998.506 3027.7,1122.51 3009,1295.5C 3001.58,1381.51 2970.58,1457.51 2916,1523.5C 2910.38,1529.77 2904.55,1535.77 2898.5,1541.5C 2896.93,1539.19 2896.1,1536.52 2896,1533.5C 2864.77,1330.62 2833.27,1127.78 2801.5,925C 2801.84,923.97 2802.5,923.47 2803.5,923.5 Z"/></g>
<g><path style="opacity:1" fill="#444444" d="M 1030.5,1190.5 C 1054.67,1190.17 1078.67,1190.5 1102.5,1191.5C 1050.5,1191.5 998.5,1191.5 946.5,1191.5C 946.833,1351.33 946.5,1511 945.5,1670.5C 945.5,1670.17 945.5,1669.83 945.5,1669.5C 945.5,1613.83 945.5,1558.17 945.5,1502.5C 945.5,1398.5 945.5,1294.5 945.5,1190.5C 973.833,1190.5 1002.17,1190.5 1030.5,1190.5 Z"/></g>
<g><path style="opacity:1" fill="#cbcbcb" d="M 1886.5,1225.5 C 1904.73,1343.86 1923.06,1462.19 1941.5,1580.5C 1862.2,1521.58 1813.04,1443.24 1794,1345.5C 1786.58,1305.86 1783.08,1265.86 1783.5,1225.5C 1817.83,1225.5 1852.17,1225.5 1886.5,1225.5 Z"/></g>
<g><path style="opacity:1" fill="#d1d1d1" d="M 1886.5,1225.5 C 1931.17,1225.5 1975.83,1225.5 2020.5,1225.5C 2042.59,1367.48 2064.59,1509.48 2086.5,1651.5C 2036.78,1636.64 1990.45,1614.8 1947.5,1586C 1945.24,1584.38 1943.24,1582.55 1941.5,1580.5C 1923.06,1462.19 1904.73,1343.86 1886.5,1225.5 Z"/></g>
<g><path style="opacity:1" fill="#d7d7d7" d="M 2020.5,1225.5 C 2065.17,1225.5 2109.83,1225.5 2154.5,1225.5C 2178.21,1376.42 2201.71,1527.42 2225,1678.5C 2225.98,1679.81 2227.15,1680.81 2228.5,1681.5C 2180.07,1675.95 2132.73,1665.95 2086.5,1651.5C 2064.59,1509.48 2042.59,1367.48 2020.5,1225.5 Z"/></g>
<g><path style="opacity:1" fill="#dcdcdc" d="M 2154.5,1225.5 C 2163.83,1225.5 2173.17,1225.5 2182.5,1225.5C 2182.51,1249.6 2185.68,1273.27 2192,1296.5C 2206.9,1339.73 2236.4,1367.57 2280.5,1380C 2293.49,1383.34 2306.49,1385.84 2319.5,1387.5C 2317.83,1387.5 2316.17,1387.5 2314.5,1387.5C 2329.77,1488.19 2345.27,1588.86 2361,1689.5C 2361.7,1690.69 2362.53,1691.69 2363.5,1692.5C 2318.31,1691.06 2273.31,1687.39 2228.5,1681.5C 2227.15,1680.81 2225.98,1679.81 2225,1678.5C 2201.71,1527.42 2178.21,1376.42 2154.5,1225.5 Z"/></g>
<g><path style="opacity:1" fill="#c3c3c3" d="M 1606.5,1287.5 C 1674.1,1414.37 1741.43,1541.37 1808.5,1668.5C 1760.67,1669.5 1712.67,1669.83 1664.5,1669.5C 1644.7,1543.04 1625.03,1416.54 1605.5,1290C 1605.53,1288.93 1605.86,1288.1 1606.5,1287.5 Z"/></g>
<g><path style="opacity:1" fill="#e3e3e3" d="M 2319.5,1387.5 C 2370.49,1392.53 2421.49,1392.53 2472.5,1387.5C 2472.08,1388.22 2471.42,1388.72 2470.5,1389C 2486.49,1489.08 2502.16,1589.25 2517.5,1689.5C 2519.5,1689.5 2521.5,1689.5 2523.5,1689.5C 2504.7,1691.36 2485.7,1692.53 2466.5,1693C 2432.16,1693.75 2397.82,1693.58 2363.5,1692.5C 2362.53,1691.69 2361.7,1690.69 2361,1689.5C 2345.27,1588.86 2329.77,1488.19 2314.5,1387.5C 2316.17,1387.5 2317.83,1387.5 2319.5,1387.5 Z"/></g>
<g><path style="opacity:1" fill="#8d8d8d" d="M 1808.5,1668.5 C 1809.04,1668.56 1809.38,1668.89 1809.5,1669.5C 1651.33,1670.83 1493.33,1670.83 1335.5,1669.5C 1355.5,1669.5 1375.5,1669.5 1395.5,1669.5C 1440.5,1669.5 1485.5,1669.5 1530.5,1669.5C 1575.17,1669.5 1619.83,1669.5 1664.5,1669.5C 1712.67,1669.83 1760.67,1669.5 1808.5,1668.5 Z"/></g>
<g><path style="opacity:1" fill="#8c8c8c" d="M 568.5,1815.5 C 636.383,2253.47 704.05,2691.47 771.5,3129.5C 816.5,3129.5 861.5,3129.5 906.5,3129.5C 911.833,3129.5 917.167,3129.5 922.5,3129.5C 782.334,3130.5 642.001,3130.83 501.5,3130.5C 501.5,2692.17 501.5,2253.83 501.5,1815.5C 523.833,1815.5 546.167,1815.5 568.5,1815.5 Z"/></g>
<g><path style="opacity:1" fill="#929292" d="M 568.5,1815.5 C 613.167,1815.5 657.833,1815.5 702.5,1815.5C 770.41,2253.54 838.41,2691.54 906.5,3129.5C 861.5,3129.5 816.5,3129.5 771.5,3129.5C 704.05,2691.47 636.383,2253.47 568.5,1815.5 Z"/></g>
<g><path style="opacity:1" fill="#989898" d="M 702.5,1815.5 C 754.833,1815.5 807.167,1815.5 859.5,1815.5C 879.981,1950.71 900.981,2085.71 922.5,2220.5C 922.5,2279.83 922.5,2339.17 922.5,2398.5C 931.5,2398.5 940.5,2398.5 949.5,2398.5C 965.318,2500.9 981.318,2603.23 997.5,2705.5C 972.5,2705.5 947.5,2705.5 922.5,2705.5C 922.5,2846.83 922.5,2988.17 922.5,3129.5C 917.167,3129.5 911.833,3129.5 906.5,3129.5C 838.41,2691.54 770.41,2253.54 702.5,1815.5 Z"/></g>
<g><path style="opacity:1" fill="#9f9f9f" d="M 859.5,1815.5 C 904.167,1815.5 948.833,1815.5 993.5,1815.5C 1009.61,1919.15 1025.61,2022.81 1041.5,2126.5C 1062.01,2126.17 1082.34,2126.5 1102.5,2127.5C 1042.5,2127.5 982.5,2127.5 922.5,2127.5C 922.5,2158.5 922.5,2189.5 922.5,2220.5C 900.981,2085.71 879.981,1950.71 859.5,1815.5 Z"/></g>
<g><path style="opacity:1" fill="#a5a5a5" d="M 993.5,1815.5 C 1038.17,1815.5 1082.83,1815.5 1127.5,1815.5C 1144.87,1925.43 1161.87,2035.43 1178.5,2145.5C 1154.73,2133.15 1129.39,2127.15 1102.5,2127.5C 1082.34,2126.5 1062.01,2126.17 1041.5,2126.5C 1025.61,2022.81 1009.61,1919.15 993.5,1815.5 Z"/></g>
<g><path style="opacity:1" fill="#ababab" d="M 1127.5,1815.5 C 1173,1815.17 1218.34,1815.5 1263.5,1816.5C 1262.85,1817.27 1262.52,1818.27 1262.5,1819.5C 1306.84,2105.51 1351.17,2391.51 1395.5,2677.5C 1353.82,2693.75 1310.49,2702.75 1265.5,2704.5C 1246.89,2585.54 1228.55,2466.54 1210.5,2347.5C 1225.55,2320.9 1232.21,2292.23 1230.5,2261.5C 1233.97,2218.64 1220.3,2182.47 1189.5,2153C 1185.66,2150.64 1181.99,2148.14 1178.5,2145.5C 1161.87,2035.43 1144.87,1925.43 1127.5,1815.5 Z"/></g>
<g><path style="opacity:1" fill="#bfbfbf" d="M 1687.5,1815.5 C 1706.39,1939.85 1725.39,2064.18 1744.5,2188.5C 1700.09,2064.45 1655.76,1940.29 1611.5,1816C 1636.83,1815.5 1662.16,1815.33 1687.5,1815.5 Z"/></g>
<g><path style="opacity:1" fill="#c4c4c4" d="M 1687.5,1815.5 C 1732.17,1815.5 1776.83,1815.5 1821.5,1815.5C 1875.17,2163.5 1928.83,2511.5 1982.5,2859.5C 1902.79,2636.05 1823.46,2412.38 1744.5,2188.5C 1725.39,2064.18 1706.39,1939.85 1687.5,1815.5 Z"/></g>
<g><path style="opacity:1" fill="#cacaca" d="M 1821.5,1815.5 C 1873.5,1815.5 1925.5,1815.5 1977.5,1815.5C 2045.56,2252.75 2113.39,2690.08 2181,3127.5C 2225.61,3129.49 2270.45,3130.16 2315.5,3129.5C 2360.17,3129.5 2404.83,3129.5 2449.5,3129.5C 2488.5,3129.5 2527.5,3129.5 2566.5,3129.5C 2403.67,3130.5 2240.67,3130.83 2077.5,3130.5C 2046.04,3040.12 2014.37,2949.79 1982.5,2859.5C 1928.83,2511.5 1875.17,2163.5 1821.5,1815.5 Z"/></g>
<g><path style="opacity:1" fill="#d1d1d1" d="M 1977.5,1815.5 C 2005.84,1815.17 2034.17,1815.5 2062.5,1816.5C 2097.81,1933.09 2132.81,2049.76 2167.5,2166.5C 2166.88,2166.92 2166.54,2167.58 2166.5,2168.5C 2216.28,2488.82 2265.94,2809.16 2315.5,3129.5C 2270.45,3130.16 2225.61,3129.49 2181,3127.5C 2113.39,2690.08 2045.56,2252.75 1977.5,1815.5 Z"/></g>
<g><path style="opacity:1" fill="#eaeaea" d="M 2671.5,1815.5 C 2707.43,2050.76 2744.1,2285.76 2781.5,2520.5C 2750.5,2608.5 2719.5,2696.5 2688.5,2784.5C 2687.88,2784.39 2687.38,2784.06 2687,2783.5C 2643.93,2506.19 2601.1,2228.86 2558.5,1951.5C 2571.69,1906.43 2585.19,1861.43 2599,1816.5C 2623.09,1815.51 2647.26,1815.17 2671.5,1815.5 Z"/></g>
<g><path style="opacity:1" fill="#f0f0f0" d="M 2671.5,1815.5 C 2716.17,1815.5 2760.83,1815.5 2805.5,1815.5C 2828.14,1963.02 2851.14,2110.35 2874.5,2257.5C 2843.7,2345.24 2812.7,2432.91 2781.5,2520.5C 2744.1,2285.76 2707.43,2050.76 2671.5,1815.5 Z"/></g>
<g><path style="opacity:1" fill="#f5f5f5" d="M 2805.5,1815.5 C 2850.17,1815.5 2894.83,1815.5 2939.5,1815.5C 2948.47,1872.12 2957.3,1928.79 2966,1985.5C 2966,1988.05 2966.84,1990.05 2968.5,1991.5C 2936.97,2080.09 2905.64,2168.75 2874.5,2257.5C 2851.14,2110.35 2828.14,1963.02 2805.5,1815.5 Z"/></g>
<g><path style="opacity:1" fill="#fafafa" d="M 2939.5,1815.5 C 2969.84,1815.33 3000.17,1815.5 3030.5,1816C 3009.54,1874.39 2988.87,1932.89 2968.5,1991.5C 2966.84,1990.05 2966,1988.05 2966,1985.5C 2957.3,1928.79 2948.47,1872.12 2939.5,1815.5 Z"/></g>
<g><path style="opacity:1" fill="#b1b1b1" d="M 1263.5,1816.5 C 1320.73,1818.64 1375.06,1831.97 1426.5,1856.5C 1425.76,1856.37 1425.09,1856.54 1424.5,1857C 1462.28,2099.64 1500.28,2342.14 1538.5,2584.5C 1505.02,2619.13 1466.35,2646.63 1422.5,2667C 1413.7,2671.07 1404.7,2674.57 1395.5,2677.5C 1351.17,2391.51 1306.84,2105.51 1262.5,1819.5C 1262.52,1818.27 1262.85,1817.27 1263.5,1816.5 Z"/></g>
<g><path style="opacity:1" fill="#b8b8b8" d="M 1426.5,1856.5 C 1489.74,1885.74 1541.08,1929.08 1580.5,1986.5C 1579.86,1987.1 1579.53,1987.93 1579.5,1989C 1600.48,2125.03 1621.81,2260.87 1643.5,2396.5C 1625.04,2468.8 1590.04,2531.46 1538.5,2584.5C 1500.28,2342.14 1462.28,2099.64 1424.5,1857C 1425.09,1856.54 1425.76,1856.37 1426.5,1856.5 Z"/></g>
<g><path style="opacity:1" fill="#e3e3e3" d="M 2558.5,1951.5 C 2601.1,2228.86 2643.93,2506.19 2687,2783.5C 2687.38,2784.06 2687.88,2784.39 2688.5,2784.5C 2652.36,2887.58 2616.03,2990.58 2579.5,3093.5C 2578.04,3090.8 2577.2,3087.8 2577,3084.5C 2536.39,2821.42 2495.56,2558.42 2454.5,2295.5C 2488.59,2180.56 2523.26,2065.89 2558.5,1951.5 Z"/></g>
<g><path style="opacity:1" fill="#bbbbbb" d="M 1580.5,1986.5 C 1627.9,2054.87 1653.73,2130.87 1658,2214.5C 1658.67,2242.83 1658.67,2271.17 1658,2299.5C 1656.35,2332.33 1651.52,2364.67 1643.5,2396.5C 1621.81,2260.87 1600.48,2125.03 1579.5,1989C 1579.53,1987.93 1579.86,1987.1 1580.5,1986.5 Z"/></g>
<g><path style="opacity:0.998" fill="#000000" d="M 1102.5,2127.5 C 1129.39,2127.15 1154.73,2133.15 1178.5,2145.5C 1181.99,2148.14 1185.66,2150.64 1189.5,2153C 1220.3,2182.47 1233.97,2218.64 1230.5,2261.5C 1232.21,2292.23 1225.55,2320.9 1210.5,2347.5C 1191.08,2375.07 1164.41,2391.23 1130.5,2396C 1114.91,2398.15 1099.24,2398.99 1083.5,2398.5C 1038.83,2398.5 994.167,2398.5 949.5,2398.5C 940.5,2398.5 931.5,2398.5 922.5,2398.5C 922.5,2339.17 922.5,2279.83 922.5,2220.5C 922.5,2189.5 922.5,2158.5 922.5,2127.5C 982.5,2127.5 1042.5,2127.5 1102.5,2127.5 Z M 1031.5,2235.5 C 1031.5,2253.83 1031.5,2272.17 1031.5,2290.5C 1056.17,2290.67 1080.84,2290.5 1105.5,2290C 1110.29,2289.78 1114.96,2288.95 1119.5,2287.5C 1120.97,2284.7 1121.8,2281.7 1122,2278.5C 1122.98,2264.75 1122.48,2251.09 1120.5,2237.5C 1116.86,2236.92 1113.19,2236.42 1109.5,2236C 1083.5,2235.5 1057.5,2235.33 1031.5,2235.5 Z"/></g>
<g><path style="opacity:1" fill="#d6d6d6" d="M 2167.5,2166.5 C 2220.48,2342.09 2273.31,2517.75 2326,2693.5C 2328.96,2695.08 2331.62,2694.74 2334,2692.5C 2344.55,2656.96 2355.38,2621.62 2366.5,2586.5C 2393.84,2767.54 2421.51,2948.54 2449.5,3129.5C 2404.83,3129.5 2360.17,3129.5 2315.5,3129.5C 2265.94,2809.16 2216.28,2488.82 2166.5,2168.5C 2166.54,2167.58 2166.88,2166.92 2167.5,2166.5 Z"/></g>
<g><path style="opacity:1" fill="#dddddd" d="M 2454.5,2295.5 C 2495.56,2558.42 2536.39,2821.42 2577,3084.5C 2577.2,3087.8 2578.04,3090.8 2579.5,3093.5C 2575.54,3105.73 2571.2,3117.73 2566.5,3129.5C 2527.5,3129.5 2488.5,3129.5 2449.5,3129.5C 2421.51,2948.54 2393.84,2767.54 2366.5,2586.5C 2395.08,2489.17 2424.41,2392.17 2454.5,2295.5 Z"/></g>
<g><path style="opacity:1" fill="#a5a5a5" d="M 1210.5,2347.5 C 1228.55,2466.54 1246.89,2585.54 1265.5,2704.5C 1220.86,2705.48 1176.19,2705.81 1131.5,2705.5C 1115.6,2603.12 1099.6,2500.79 1083.5,2398.5C 1099.24,2398.99 1114.91,2398.15 1130.5,2396C 1164.41,2391.23 1191.08,2375.07 1210.5,2347.5 Z"/></g>
<g><path style="opacity:1" fill="#9f9f9f" d="M 949.5,2398.5 C 994.167,2398.5 1038.83,2398.5 1083.5,2398.5C 1099.6,2500.79 1115.6,2603.12 1131.5,2705.5C 1086.83,2705.5 1042.17,2705.5 997.5,2705.5C 981.318,2603.23 965.318,2500.9 949.5,2398.5 Z"/></g>
</svg>
